P3
# Image Processing Application
2 2
255
100
0
0
0
100
0
0
0
100
100
100
0
